<?xml version="1.0" encoding="UTF-8"?>
<svg version="1.1" xmlns="http://www.w3.org/2000/svg" width="410" height="404">
<path d="M0 0 C3.25802507 6.51605014 -0.36140846 14.61454367 -2.28125 21.05859375 C-2.61419067 22.20288345 -2.94713135 23.34717316 -3.29016113 24.52613831 C-4.3513545 28.16588547 -5.42547656 31.80166844 -6.5 35.4375 C-7.22351353 37.91055665 -7.94617946 40.38386144 -8.66796875 42.85742188 C-10.43550184 48.90785747 -12.21365363 54.95509387 -14 61 C-12.71484497 60.75974594 -11.42968994 60.51949188 -10.10559082 60.2719574 C2.01571654 58.00755288 14.13931198 55.75578332 26.26525116 53.51631069 C32.49899644 52.36461658 38.73185559 51.20851217 44.96289062 50.04223633 C50.97803827 48.91653785 56.99524731 47.8025457 63.01405334 46.69658089 C65.30807997 46.27293747 67.60133747 45.84510682 69.89378357 45.41299248 C73.10888349 44.80770806 76.32641486 44.21747252 79.54492188 43.63061523 C80.48863647 43.44935593 81.43235107 43.26809662 82.40466309 43.0813446 C87.92868551 42.09324376 92.48689994 41.8111777 98 43 C101.48226659 45.97443604 102.80586388 47.85113965 103.5703125 52.375 C103.37709064 59.07412456 99.1539677 64.80026041 95.875 70.4375 C95.13969928 71.73066665 94.40608017 73.02479079 93.67407227 74.31982422 C92.18033697 76.9572475 90.67788293 79.58937235 89.16748047 82.21728516 C86.61887141 86.65575084 84.12241723 91.12278442 81.62915039 95.5925293 C79.92467718 98.64798632 78.21294864 101.69928771 76.5 104.75 C72.79149086 111.36336844 69.11425995 117.99394439 65.4375 124.625 C60.30632443 133.87599664 55.1288359 143.09905921 49.91162109 152.30175781 C45.11250644 160.77731882 40.3824394 169.29050355 35.65844727 177.80810547 C29.71367618 188.52472941 23.72776111 199.21800966 17.73388672 209.90722656 C14.8206086 215.10370745 11.91047173 220.30194696 9 225.5 C7.8333482 227.58334166 6.66668154 229.66667499 5.5 231.75 C4.9225 232.78125 4.345 233.8125 3.75 234.875 C-1.5 244.25 -1.5 244.25 -3.24975586 247.37451172 C-4.41729579 249.45943936 -5.58477619 251.54440034 -6.75219727 253.62939453 C-9.65501752 258.81360899 -12.55884467 263.99725417 -15.46484375 269.1796875 C-21.52060086 279.98203312 -27.55608874 290.79513013 -33.5625 301.625 C-38.69299109 310.874503 -43.86904068 320.09650117 -49.08618164 329.29736328 C-52.61716205 335.5324319 -56.11320451 341.78601036 -59.58813477 348.05249023 C-60.85498299 350.33689373 -62.12367836 352.62027391 -63.39428711 354.90258789 C-66.50015248 360.48170947 -69.58522421 366.07027963 -72.62890625 371.68359375 C-73.77322589 373.76834534 -74.91774771 375.85298595 -76.0625 377.9375 C-76.57425781 378.8965625 -77.08601562 379.855625 -77.61328125 380.84375 C-80.4566526 385.9842661 -82.62225627 389.43745098 -88 392 C-91.30963618 392.639863 -93.84540904 392.13028323 -97 391 C-102.4743823 385.7256432 -105.90283982 378.09342176 -109.5 371.5 C-114.23053785 362.93661699 -119.03998504 354.43258462 -124 346 C-129.37356804 336.84992436 -134.59273523 327.62329678 -139.75219727 318.35107422 C-143.72815635 311.22371733 -147.80163998 304.16060908 -151.9375 297.125 C-157.57899163 287.52434496 -163.01212614 277.82047748 -168.39208984 268.07128906 C-173.07243587 259.61248188 -177.90186334 251.2516336 -182.80078125 242.91796875 C-186.95900268 235.82838852 -191.0036613 228.68193905 -195 221.5 C-199.57566573 213.27797099 -204.23582452 205.11425646 -209 197 C-214.41450699 187.775649 -219.68630694 178.47985528 -224.89501953 169.13793945 C-229.98624609 160.00862258 -235.16042475 150.92905085 -240.36035156 141.86132812 C-243.15595259 136.9827629 -245.94407334 132.09992425 -248.73303223 127.21755981 C-249.75243984 125.43322941 -250.77216437 123.6490805 -251.79199219 121.86499023 C-254.88708573 116.45018492 -257.98108737 111.03477111 -261.06922913 105.61599731 C-262.75375428 102.66024738 -264.43929464 99.70507695 -266.125 96.75 C-266.45287506 96.17499756 -266.78075012 95.59999512 -267.11856079 95.00756836 C-270.74133798 88.65688325 -274.38570169 82.31983475 -278.08203125 76.01171875 C-278.73091309 74.9040918 -279.37979492 73.79646484 -280.04833984 72.65527344 C-281.27893421 70.55922359 -282.51220041 68.46473938 -283.74853516 66.37207031 C-284.29429199 65.44362305 -284.84004883 64.51517578 -285.40234375 63.55859375 C-285.88179443 62.74704834 -286.36124512 61.93550293 -286.85522461 61.09936523 C-289.13309572 56.92205373 -289.83985238 52.68308989 -289 48 C-286.82425584 45.30894802 -285.08934144 43.54467072 -282 42 C-273.90727826 42.16838961 -265.91885784 43.56953386 -257.97680664 45.02539062 C-256.27447372 45.3304377 -256.27447372 45.3304377 -254.53775024 45.64164734 C-250.82757067 46.30785545 -247.11887537 46.98196345 -243.41015625 47.65625 C-240.81620202 48.12372602 -238.22216063 48.59071868 -235.6280365 49.05725098 C-230.21189107 50.0320769 -224.79648047 51.01089387 -219.3815918 51.99267578 C-211.75251818 53.37591416 -204.12220824 54.75223083 -196.49160588 56.12700748 C-185.69940416 58.07172138 -174.90782993 60.01991265 -164.11743164 61.97460938 C-163.06022415 62.16580856 -162.00301666 62.35700775 -160.91377258 62.55400085 C-159.93978516 62.73062759 -158.96579773 62.90725433 -157.96229553 63.0892334 C-156.69839036 63.31819431 -156.69839036 63.31819431 -155.40895176 63.5517807 C-152.93452175 64.01218315 -150.46688429 64.50087145 -148 65 C-147.95512451 63.96069336 -147.91024902 62.92138672 -147.86401367 61.85058594 C-147.69354469 57.98835659 -147.5046836 54.12720694 -147.31030273 50.26611328 C-147.22879534 48.59610287 -147.1522527 46.92584235 -147.08081055 45.25537109 C-146.97714263 42.85170536 -146.85554521 40.44951019 -146.73046875 38.046875 C-146.70220505 37.30193787 -146.67394135 36.55700073 -146.64482117 35.78948975 C-146.40317079 31.53837466 -145.92757098 29.10588992 -143 26 C-140.96687317 25.16868591 -140.96687317 25.16868591 -138.52661133 24.68139648 C-137.56019211 24.48030777 -136.59377289 24.27921906 -135.59806824 24.07203674 C-134.49965103 23.86135056 -133.40123383 23.65066437 -132.26953125 23.43359375 C-131.07229935 23.19072128 -129.87506744 22.94784882 -128.64155579 22.69761658 C-125.79233185 22.12074059 -122.9409629 21.55606893 -120.08795166 20.99822998 C-115.37351083 20.07594407 -110.6631486 19.13394865 -105.9530468 18.1897831 C-94.24823653 15.8440798 -82.53710483 13.531832 -70.8212719 11.24184608 C-64.59030401 10.02391446 -58.36033029 8.80137023 -52.13256836 7.56713867 C-46.02683626 6.35709399 -39.91902524 5.15815068 -33.80951881 3.96731377 C-31.50072914 3.51542779 -29.19268728 3.05970276 -26.88544273 2.59999275 C-23.68041499 1.96228846 -20.47290778 1.33893744 -17.2644043 0.71899414 C-16.32368073 0.52845963 -15.38295715 0.33792511 -14.41372681 0.14161682 C-9.28498421 -0.83198616 -5.10046147 -1.27894546 0 0 Z " fill="#8C72FE" transform="translate(298,2)"/>
<path d="M0 0 C3.2129541 6.42590821 -0.28523817 14.37657352 -2.17578125 20.7421875 C-2.5016069 21.86513214 -2.82743256 22.98807678 -3.16313171 24.14505005 C-4.20420653 27.72430892 -5.25836653 31.29956807 -6.3125 34.875 C-7.01058304 37.2718975 -7.70785717 39.66903075 -8.40429688 42.06640625 C-13.74957766 60.40005996 -13.74957766 60.40005996 -16.34382629 68.0609436 C-17.87851982 72.59611054 -19.27398464 77.17599414 -20.6875 81.75 C-21.00783203 82.76449219 -21.32816406 83.77898437 -21.65820312 84.82421875 C-21.96048828 85.80519531 -22.26277344 86.78617187 -22.57421875 87.796875 C-22.98546997 89.11703613 -22.98546997 89.11703613 -23.4050293 90.46386719 C-24.01973439 93.08412016 -24.1817015 95.31865941 -24 98 C-22.86960297 99.34632295 -22.86960297 99.34632295 -19.91015625 99.25 C-12.98432635 99.16356219 -6.193129 97.40503253 0.5625 96 C2.64708636 95.56755535 4.73201682 95.13762901 6.8188324 94.71606445 C8.70940002 94.33411818 10.59805318 93.94273093 12.48657227 93.55078125 C21.66734177 92.11156118 21.66734177 92.11156118 26 95 C25.48832998 100.70798353 23.89163476 104.92353047 21.30250549 110.00299072 C20.9166857 110.779608 20.53086591 111.55622528 20.1333546 112.35637641 C18.8425766 114.94847931 17.53766798 117.53319675 16.23266602 120.11816406 C15.3020895 121.97954389 14.37238852 123.84136164 13.4434967 125.70358276 C10.91892869 130.75842611 8.38199996 135.80697373 5.84272885 140.85444355 C3.1792202 146.15386094 0.52677376 151.45880979 -2.12696838 156.76312256 C-6.5919784 165.68393515 -11.06429858 174.60104985 -15.54174805 183.515625 C-21.82668088 196.028935 -28.09801088 208.5490246 -34.36679351 221.07043123 C-38.73397903 229.79227696 -43.10440837 238.5124976 -47.47546887 247.23240185 C-48.52832591 249.33277782 -49.58110311 251.43319381 -50.63379931 253.5336504 C-53.64434819 259.54028932 -56.6569734 265.54587838 -59.67267799 271.54993057 C-60.58020702 273.35737721 -61.48713507 275.16512578 -62.39336395 276.97322464 C-67.36739183 286.89591223 -72.41294647 296.77355339 -77.62056679 306.57604623 C-80.62206634 312.23377594 -83.46930296 317.94901724 -86.234375 323.7265625 C-88 326 -88 326 -91.015625 327.0234375 C-94 327 -94 327 -95.69200134 325.72436523 C-97 324 -97 324 -96.91235352 320.38671875 C-95.90150775 313.62042149 -94.38332655 306.93158464 -92.93113518 300.24862671 C-92.39270421 297.76809093 -91.86071174 295.2862513 -91.33045959 292.80395508 C-89.82322346 285.75239553 -88.30654545 278.70289564 -86.78100586 271.65527344 C-85.84484137 267.32826013 -84.91769517 262.99939264 -83.99597359 258.66928101 C-83.64498375 257.0292302 -83.29057599 255.38990674 -82.9325695 253.75137329 C-80.33883552 241.99744402 -80.33883552 241.99744402 -80 230 C-86.22408309 228.0622144 -91.19465766 230.41623817 -97.0625 232.5 C-99.00785662 233.18810116 -100.9569994 233.86561203 -102.91015625 234.53125 C-104.19611694 234.98854492 -104.19611694 234.98854492 -105.50805664 235.45507812 C-108.38990274 236.08526138 -110.19517146 235.87151832 -113 235 C-115 233 -115 233 -115.13696289 231.13671875 C-114.10330388 219.97453662 -111.28462776 209.07691628 -108.7902832 198.16992188 C-105.32277082 183.75021678 -105.32277082 183.75021678 -105 169 C-112.61465406 170.31128484 -120.15937139 171.77506289 -127.67578125 173.5703125 C-128.83223145 173.84601074 -129.98868164 174.12170898 -131.18017578 174.40576172 C-133.49714437 174.9634728 -135.81199962 175.53004657 -138.12451172 176.10595703 C-139.7393042 176.49436768 -139.7393042 176.49436768 -141.38671875 176.890625 C-142.34795654 177.12813477 -143.30919434 177.36564453 -144.29956055 177.61035156 C-147.18548987 178.02676447 -149.20891864 177.79736379 -152 177 C-153.65800863 175.34199137 -153.13541892 173.38213073 -153.14256287 171.10198975 C-153.14606027 170.06248295 -153.14955767 169.02297615 -153.15316105 167.95196915 C-153.14958812 166.81765331 -153.14601519 165.68333748 -153.14233398 164.51464844 C-153.13991164 163.34231533 -153.1374893 162.16998222 -153.13499355 160.96212387 C-153.06365356 148.87045818 -152.44588693 136.83288094 -151.72265625 124.765625 C-151.58990951 122.45981349 -151.45779789 120.15396535 -151.32627869 117.8480835 C-150.98310902 111.86271948 -150.63097984 105.87791657 -150.2769165 99.89318848 C-149.98995047 95.0172982 -149.70933202 90.14105215 -149.42903996 85.26477432 C-147.92682799 59.1328587 -147.92682799 59.1328587 -147.31057739 49.17199707 C-147.11297657 45.97040133 -146.93853444 42.76978729 -146.79562378 39.56530762 C-146.6984758 37.68784851 -146.6984758 37.68784851 -146.59936523 35.77246094 C-146.55408188 34.73281189 -146.50879852 33.69316284 -146.46214294 32.62200928 C-145.92391541 29.56832727 -145.20016887 28.17428839 -143 26 C-140.96687317 25.16868591 -140.96687317 25.16868591 -138.52661133 24.68139648 C-137.56019211 24.48030777 -136.59377289 24.27921906 -135.59806824 24.07203674 C-134.49965103 23.86135056 -133.40123383 23.65066437 -132.26953125 23.43359375 C-131.07229935 23.19072128 -129.87506744 22.94784882 -128.64155579 22.69761658 C-125.79233185 22.12074059 -122.9409629 21.55606893 -120.08795166 20.99822998 C-115.37351083 20.07594407 -110.6631486 19.13394865 -105.9530468 18.1897831 C-94.24823653 15.8440798 -82.53710483 13.531832 -70.8212719 11.24184608 C-64.59030401 10.02391446 -58.36033029 8.80137023 -52.13256836 7.56713867 C-46.02683626 6.35709399 -39.91902524 5.15815068 -33.80951881 3.96731377 C-31.50072914 3.51542779 -29.19268728 3.05970276 -26.88544273 2.59999275 C-23.68041499 1.96228846 -20.47290778 1.33893744 -17.2644043 0.71899414 C-16.32368073 0.52845963 -15.38295715 0.33792511 -14.41372681 0.14161682 C-9.28498421 -0.83198616 -5.10046147 -1.27894546 0 0 Z " fill="#FEC923" transform="translate(298,2)"/>
</svg>
